HIERARCHY
ROOT Hips
{
  OFFSET 95.9546 95.7263 130.135
  CHANNELS 6 Xposition Yposition Zposition Zrotation Xrotation Yrotation
  JOINT Spine
  {
    OFFSET 10.2832 1.67858 -0.048102
    CHANNELS 3 Zrotation Xrotation Yrotation
    JOINT Spine1
    {
      OFFSET 12.2747 3.29442 1.09098
      CHANNELS 3 Zrotation Xrotation Yrotation
      JOINT Neck
      {
        OFFSET 31.2239 8.00151 -0.587386
        CHANNELS 3 Zrotation Xrotation Yrotation
        JOINT Head
        {
          OFFSET 9.52751 0.295786 -0.907742
          CHANNELS 3 Zrotation Xrotation Yrotation
          End Site
          {
            OFFSET 16.4037 0.791643 2.7358
          }
        }
      }
      JOINT LeftShoulder
      {
        OFFSET 28.911 5.13152 2.01494
        CHANNELS 3 Zrotation Xrotation Yrotation
        JOINT LeftArm
        {
          OFFSET 1.20734 -0.998971 20.1238
          CHANNELS 3 Zrotation Xrotation Yrotation
          JOINT LeftForeArm
          {
            OFFSET 26.8049 -0.0536703 -0.155908
            CHANNELS 3 Zrotation Xrotation Yrotation
            JOINT LeftHand
            {
              OFFSET 26.6817 0 0.320147
              CHANNELS 3 Zrotation Xrotation Yrotation
              End Site
              {
                OFFSET 18.6119 0 0.382219
              }
            }
          }
        }
      }
      JOINT RightShoulder
      {
        OFFSET 28.9463 4.89009 -3.10871
        CHANNELS 3 Zrotation Xrotation Yrotation
        JOINT RightArm
        {
          OFFSET 2.83739 -1.17114 -18.7564
          CHANNELS 3 Zrotation Xrotation Yrotation
          JOINT RightForeArm
          {
            OFFSET 28.839 -0.0548439 1.22491
            CHANNELS 3 Zrotation Xrotation Yrotation
            JOINT RightHand
            {
              OFFSET 26.5114 0 -0.101894
              CHANNELS 3 Zrotation Xrotation Yrotation
              End Site
              {
                OFFSET 18.2168 0 0
              }
            }
          }
        }
      }
    }
  }
  JOINT LeftUpLeg
  {
    OFFSET -2.09119 -9.33082 -10.081
    CHANNELS 3 Zrotation Xrotation Yrotation
    JOINT LeftLeg
    {
      OFFSET 2.55951 -42.0585 -8.02213
      CHANNELS 3 Zrotation Xrotation Yrotation
      JOINT LeftFoot
      {
        OFFSET 3.16357 -42.5282 -3.95426
        CHANNELS 3 Zrotation Xrotation Yrotation
        JOINT LeftToeBase
        {
          OFFSET 0.346054 -6.02161 12.8035
          CHANNELS 3 Zrotation Xrotation Yrotation
          End Site
          {
            OFFSET 0.134235 -1.35082 5.13018
          }
        }
      }
    }
  }
  JOINT RightUpLeg
  {
    OFFSET -2.27102 -8.83155 10.7989
    CHANNELS 3 Zrotation Xrotation Yrotation
    JOINT RightLeg
    {
      OFFSET -2.56294 -42.0364 -7.94377
      CHANNELS 3 Zrotation Xrotation Yrotation
      JOINT RightFoot
      {
        OFFSET -3.0952 -42.555 -4.02241
        CHANNELS 3 Zrotation Xrotation Yrotation
        JOINT RightToeBase
        {
          OFFSET -0.0828122 -6.13587 12.8035
          CHANNELS 3 Zrotation Xrotation Yrotation
          End Site
          {
            OFFSET -0.131328 -1.35082 5.13018
          }
        }
      }
    }
  }
}
MOTION
Frames:	15
Frame Time:	0.0333333
-41.1643 75.5381 -10.7347 1.877 -50.3806 -94.4385 133.149 16.3002 179.878 -8.83258 24.2797 -0.351651 -179.34 18.0606 -162.275 -158.974 62.6828 -152.224 -6.78264 -33.2762 -42.3342 -118.363 15.1312 -151.624 -11.6955 -18.4917 -12.5761 0.420957 0.000575418 0.35866 -0.822223 19.4155 15.5241 -122.783 -26.8114 143.409 -7.69324 0.775935 14.5074 0.58676 0.000331274 0.0646654 26.399 31.1777 96.5439 -3.368 45.9609 -8.14128 -15.339 19.0352 5.91144 4.18367 -9.36287 1.71622 22.2169 -1.94589 83.5419 83.5443 86.0796 -80.9152 -14.4277 -19.5776 1.06567 2.26912 -0.323679 -14.0622 
-34.4759 76.2947 -5.09791 -5.39763 -47.3417 -98.0448 130.235 16.4404 179.751 -10.226 25.2086 -1.92234 -174.251 16.871 -163.066 -160.071 60.8273 -146.248 -5.70185 -31.952 -39.3614 -116.859 7.90381 -154.184 -12.1154 -19.1419 -14.6005 0.420957 0.000575418 0.35866 -2.0256 21.1807 20.8252 -124.94 -24.7108 147.289 -8.43349 6.2442 14.9414 0.58676 0.000331274 0.0646654 30.7979 35.217 97.378 -4.28183 53.2814 -6.29347 -17.2696 20.3159 6.78533 2.72986 -5.05356 -2.87724 21.264 -2.12638 83.6638 100.831 85.5479 -93.5322 -15.0999 -19.9762 1.01337 2.68831 -7.7772 -18.5137 
-27.8425 77.8703 1.41771 -9.50764 -44.8711 -98.5734 130.942 15.9189 178.395 -10.1096 26.7004 0.239131 -174.721 15.883 -164.837 -156.146 59.8306 -149.567 -5.17893 -31.4222 -38.0445 -112.261 7.84757 -156.174 -14.4361 -24.6437 -17.4144 0.420957 0.000575418 0.35866 -2.05814 19.542 21.8773 -122.502 -23.9699 146.993 -9.9001 19.7595 18.3255 0.58676 0.000331274 0.0646654 29.681 36.1859 100.488 -6.61213 60.6299 -8.62137 -8.66249 10.3198 2.60292 -0.0854723 4.55492 -8.53224 17.0935 -2.37473 85.5732 72.7585 85.5346 -64.9921 -13.4961 -22.6016 0.978294 2.43395 -12.4892 -17.2239 
-20.9083 80.9634 7.84883 -11.8954 -41.6515 -97.7696 131.857 16.0979 178.029 -9.99141 28.0638 1.33232 -177.307 14.5127 -164.169 -156.912 58.9939 -149.547 -4.87869 -31.0605 -37.1726 -109.212 17.7521 -156.873 -9.06827 -16.086 -19.4147 0.420957 0.000575418 0.35866 -2.68513 17.7985 26.3879 -125.43 -25.7048 146.519 -9.45533 22.3745 19.1605 0.58676 0.000331274 0.0646654 29.5535 35.3235 103.111 -7.64449 65.5206 -2.2524 1.53033 -3.35317 -0.505157 -0.159227 -0.448577 1.84347 11.3989 -1.75979 88.8988 25.0301 80.5723 -15.1004 -12.4809 -20.7471 1.1129 2.1332 -19.8287 -23.6109 
-14.0802 83.1159 14.535 -10.6546 -37.5968 -95.2776 136.703 17.0893 178.628 -11.8825 26.9021 1.33254 -176.425 13.7768 -167.926 -152.392 57.7789 -151.464 -4.57395 -30.9187 -36.4844 -98.388 4.96837 -154.184 -11.8919 -21.9077 -26.1347 0.420957 0.000575418 0.35866 -3.56479 16.4996 33.1084 -122.689 -20.024 142.777 -10.4699 26.8127 21.2935 0.58676 0.000331274 0.0646654 32.3609 30.9265 103.3 -10.6188 72.1228 3.89191 3.4894 -5.70574 -0.814074 3.09571 -8.36311 7.03039 7.54939 -3.86753 93.3217 12.7125 74.5596 -5.53157 -10.0087 -19.1757 1.26378 1.93538 -24.0907 -20.1618 
-7.34393 85.4087 21.6562 -7.53332 -35.7496 -91.9773 142.862 18.2019 178.533 -10.7825 24.783 2.03839 -178.571 12.5471 -166.694 -151.152 57.0278 -152.979 -4.20906 -30.0947 -36.1997 -88.8611 1.04853 -150.786 -13.055 -18.4058 -35.3607 0.420957 0.000575418 0.35866 -3.53174 14.7095 36.0051 -125.436 -21.9879 131.584 -12.572 23.7876 28.3836 0.58676 0.000331274 0.0646654 28.9275 24.987 106.903 -14.0483 74.9614 4.62598 4.92323 -7.33842 -0.986281 4.90681 -12.4372 13.4505 0.656529 -6.68398 99.0459 6.93803 67.77 -3.92115 -6.52171 -14.2122 1.29432 1.9908 -27.2204 -17.3063 
-0.181494 87.3789 28.6771 -8.80023 -36.5123 -89.663 146.85 18.4574 179.606 -11.099 24.6516 1.41458 -175.082 11.7176 -167.455 -148.619 55.7834 -153.186 -3.13656 -28.4476 -32.9921 -80.4481 12.4829 -145.672 -8.7073 -7.88278 -47.1244 0.420957 0.000575418 0.35866 -3.73856 12.9522 41.1846 -119.944 -12.8305 124.045 -19.0094 28.6217 35.225 0.58676 0.000331274 0.0646654 23.0925 21.7647 107.207 -17.1697 76.8306 6.25669 2.49672 -14.8024 -1.26633 3.31395 -9.8409 12.9492 -7.69956 -4.37495 104.257 3.28986 62.0886 -8.55814 -3.75517 -1.45785 0.698407 3.29539 -29.5749 -4.44705 
6.88496 88.673 35.7525 -10.7927 -37.4583 -86.7466 152.416 17.8695 -179.769 -11.3104 24.1615 3.41481 -172.847 10.1637 -168.465 -147.897 53.9853 -152.802 -2.30079 -26.7503 -30.4436 -70.506 20.0495 -140.822 -3.73196 -1.92707 -61.4934 0.420957 0.000575418 0.35866 -3.41868 11.4177 42.7208 -115.041 -6.86528 110.82 -28.5986 28.8167 48.0875 0.58676 0.000331274 0.0646654 18.5171 18.6641 104.817 -22.7877 79.2475 10.0917 0.996798 -17.1314 -1.44023 3.81181 -10.7373 13.6146 -12.2367 1.39803 110.653 4.64172 63.0365 -4.22529 -2.56509 11.7216 -0.157372 2.59675 -13.126 -21.0467 
13.6092 89.4745 43.4512 -10.6324 -38.8024 -83.0278 158.418 17.9107 -178.735 -10.161 22.3847 4.9598 -171.287 8.11148 -173.789 -144.782 50.5462 -158.236 -1.5187 -25.1329 -27.3841 -59.1817 21.8191 -138.473 2.85598 0.735543 -75.0948 0.420957 0.000575418 0.35866 -3.02995 9.41059 45.2928 -109.869 0.545027 99.0985 -36.3187 26.5192 58.3345 0.58676 0.000331274 0.0646654 11.7033 14.9314 103.704 -25.5696 80.0288 11.407 1.10942 -17.5777 -1.47014 5.38927 -13.1348 12.8761 -12.5172 5.57641 111.324 9.81432 69.7437 1.6653 -5.50071 16.3704 0.38153 2.17131 -12.868 -12.1399 
20.3303 89.8266 51.0546 -8.74614 -41.0122 -79.4064 162.562 19.2871 -176.948 -9.22694 19.9021 4.97359 -167.334 6.45815 -176.712 -142.036 47.9607 -160.859 -1.02026 -24.2747 -24.7425 -48.7948 21.935 -135.453 6.01898 0.115953 -88.0547 0.420957 0.000575418 0.35866 -2.50368 8.85529 42.0096 -107.367 -0.993935 85.6562 -39.9871 20.9433 66.569 0.58676 0.000331274 0.0646654 1.89755 10.7254 105.003 -20.9182 78.1893 6.44854 -0.139726 -18.1462 -1.55234 7.26971 -16.0265 11.5819 -9.66837 6.56752 105.18 14.0346 75.4767 -5.56123 -2.42665 10.0813 -0.0987842 1.94236 -9.5309 -9.95668 
28.0646 91.3118 58.7787 -8.73962 -42.6565 -77.3123 165.459 20.5312 -173.792 -7.30808 17.761 4.0911 -165.106 4.5761 -176.719 -141.723 45.8167 -161.588 -0.839143 -23.7887 -23.8096 -40.9796 22.0613 -132.236 4.37268 -0.614994 -96.8658 0.420957 0.000575418 0.35866 -1.90636 8.19797 37.1762 -105.052 -4.37438 78.8919 -40.9785 16.9378 71.1274 0.58676 0.000331274 0.0646654 -9.29393 7.86059 106.65 -12.1114 71.5528 -2.63664 -0.364807 -14.5595 -1.25119 8.77134 -18.4134 9.58448 -5.19665 8.24871 96.7229 14.2489 75.991 -7.05751 -9.46502 7.77627 1.40828 2.14289 -16.8037 -5.32882 
36.4787 92.8584 67.2032 -8.11098 -46.3695 -77.2743 165.197 21.8144 -171.512 -6.36093 16.2942 1.63136 -161.59 3.14193 -176.798 -139.257 43.8972 -163.063 -0.764319 -23.2887 -23.7294 -35.4758 19.5453 -131.252 0.439327 -0.130321 -100.746 0.420957 0.000575418 0.35866 -1.74426 8.08845 35.5659 -100.129 -4.99656 73.9364 -41.9865 13.7514 74.8902 0.58676 0.000331274 0.0646654 -24.4263 3.60828 108.808 -6.51786 60.5481 -7.94531 -4.03518 -5.4258 -0.185959 10.5086 -21.9336 -0.322002 -3.76988 10.7279 90.6229 13.6218 73.3126 2.01178 -5.5294 7.23061 0.653078 2.15024 -23.5086 -16.4217 
44.1256 94.7135 75.6947 -5.5224 -49.1782 -75.4142 165.654 23.1536 -171.319 -5.5615 14.6362 1.42094 -158.36 2.68905 -175.414 -138.169 43.4176 -162.42 -0.781399 -22.908 -24.3269 -32.8253 17.2151 -129.505 -3.20652 0.701897 -102.45 0.420957 0.000575418 0.35866 -1.73165 8.31746 34.8998 -95.8232 -7.77346 68.2906 -42.0979 9.78446 79.0602 0.58676 0.000331274 0.0646654 -37.4138 -0.283413 108.206 -4.33384 48.8808 -13.2558 -11.9202 9.79873 3.23203 7.63456 -14.6 -20.2653 -3.47761 12.8065 83.5877 8.52173 65.4614 8.7654 -2.61774 4.79323 0.226311 1.89614 -25.759 -19.3221 
51.8607 96.2254 84.0345 -3.18145 -49.9646 -73.8461 167.512 25.0259 -172.532 -5.17125 13.2002 2.2 -155.481 2.01638 -175.588 -136.865 42.4366 -162.911 -0.722474 -22.3265 -24.5531 -31.0124 19.6605 -127.671 -6.3927 1.38132 -101.848 0.420957 0.000575418 0.35866 -1.76367 7.76084 36.9357 -91.0055 -9.61728 65.6161 -41.8851 6.4829 82.5503 0.58676 0.000331274 0.0646654 -43.0059 -2.79417 105.518 -4.61248 46.9445 -19.5426 -12.7595 16.1621 4.60119 3.64342 -8.32243 1.96932 -5.47229 13.6739 75.8636 5.23149 51.0923 19.4707 1.86247 6.58297 -0.70671 1.05903 -33.3855 -22.3142 
58.9454 96.67 92.2964 -2.49877 -48.8147 -72.23 173.46 26.5648 -174.37 -1.5445 12.4123 3.00081 -155.211 1.0282 -176.196 -136.315 41.2436 -163.749 -0.792373 -22.1286 -25.4536 -31.4466 24.0277 -123.617 -7.14786 1.45264 -101.091 0.420957 0.000575418 0.35866 -1.84275 7.29783 39.6021 -85.7056 -12.3076 64.3176 -42.3965 4.68959 84.6243 0.58676 0.000331274 0.0646654 -39.2708 -0.450818 102.985 -5.03343 58.4912 -3.61356 -7.21788 3.43181 1.32655 1.24481 -2.3758 -0.962334 -6.85353 16.6695 71.8437 3.80938 38.3135 24.1118 8.1088 7.35979 -1.99696 1.6964 -29.3459 -19.4598 
